<?xml version="1.0" encoding="UTF-8" standalone="no"?>
<svg
   xmlns:dc="http://purl.org/dc/elements/1.1/"
   xmlns:cc="http://creativecommons.org/ns#"
   xmlns:rdf="http://www.w3.org/1999/02/22-rdf-syntax-ns#"
   xmlns:svg="http://www.w3.org/2000/svg"
   xmlns="http://www.w3.org/2000/svg"
   xmlns:sodipodi="http://sodipodi.sourceforge.net/DTD/sodipodi-0.dtd"
   xmlns:inkscape="http://www.inkscape.org/namespaces/inkscape"
   id="Layer_1"
   viewBox="0 0 190.83846 60.33749"
   version="1.1"
   inkscape:version="0.91 r13725"
   sodipodi:docname="paper_call.svg"
   width="190.83846"
   height="60.33749"
   inkscape:export-filename="G:\CurrentProjects\flutter.productions\images\paper_call.svg"
   inkscape:export-xdpi="72"
   inkscape:export-ydpi="72">
  <metadata
     id="metadata43">
    <rdf:RDF>
      <cc:Work
         rdf:about="">
        <dc:format>image/svg+xml</dc:format>
        <dc:type
           rdf:resource="http://purl.org/dc/dcmitype/StillImage" />
        <dc:title></dc:title>
      </cc:Work>
    </rdf:RDF>
  </metadata>
  <defs
     id="defs41" />
  <sodipodi:namedview
     pagecolor="#ffffff"
     bordercolor="#666666"
     borderopacity="1"
     objecttolerance="10"
     gridtolerance="10"
     guidetolerance="10"
     inkscape:pageopacity="0"
     inkscape:pageshadow="2"
     inkscape:window-width="1904"
     inkscape:window-height="1041"
     id="namedview39"
     showgrid="false"
     fit-margin-top="0"
     fit-margin-left="0"
     fit-margin-right="0"
     fit-margin-bottom="0"
     inkscape:zoom="4.8198874"
     inkscape:cx="90.597516"
     inkscape:cy="25.051922"
     inkscape:window-x="0"
     inkscape:window-y="0"
     inkscape:window-maximized="1"
     inkscape:current-layer="Layer_1" />
  <style
     id="style3">.st0{fill:#005E91;} .st1{fill:#003459;} .st2{fill:#FFFFFF;} .st3{fill:#F1C40F;} .st4{fill:#BC4D1E;} .st5{fill:#FC611F;} .st6{fill:#DF5B23;}</style>
  <rect
     style="opacity:1;fill:#ffffff;fill-opacity:1;stroke:#000000;stroke-width:1.09731674;stroke-opacity:0"
     id="rect4171"
     width="189.74113"
     height="59.240173"
     x="0.54865837"
     y="0.54865837"
     inkscape:export-xdpi="72"
     inkscape:export-ydpi="72" />
  <path
     class="st0"
     d="m 32.776527,35.195485 c 1.1,1.4 0.9,3.5 -0.6,4.6 -1.4,1.1 -3.5,0.9 -4.6,-0.6 -1.1,-1.4 -6.7,-11.1 -5.3,-12.2 1.4,-1.1 9.4,6.8 10.5,8.2 z"
     id="path5"
     inkscape:connector-curvature="0"
     style="fill:#005e91" />
  <circle
     class="st1"
     cx="30.276527"
     cy="37.295486"
     r="3.3"
     id="circle7"
     style="fill:#003459" />
  <path
     class="st2"
     d="m 30.276527,34.495485 c 1.6,0 2.8,1.3 2.8,2.8 0,1.6 -1.3,2.8 -2.8,2.8 -1.6,0 -2.8,-1.3 -2.8,-2.8 -0.1,-1.6 1.2,-2.8 2.8,-2.8 m 0,-0.6 c -1.8,0 -3.3,1.5 -3.3,3.3 0,1.8 1.5,3.3 3.3,3.3 1.8,0 3.3,-1.5 3.3,-3.3 0,-1.8 -1.5,-3.3 -3.3,-3.3 z"
     id="path9"
     inkscape:connector-curvature="0"
     style="fill:#ffffff" />
  <path
     class="st2"
     d="m 30.276527,33.995485 c 1.8,0 3.3,1.5 3.3,3.3 0,1.8 -1.5,3.3 -3.3,3.3 -1.8,0 -3.3,-1.5 -3.3,-3.3 0,-1.8 1.4,-3.3 3.3,-3.3 m 0,-0.1 c -1.8,0 -3.3,1.5 -3.3,3.3 0,1.8 1.5,3.3 3.3,3.3 1.8,0 3.3,-1.5 3.3,-3.3 0,-1.8 -1.5,-3.3 -3.3,-3.3 z"
     id="path11"
     inkscape:connector-curvature="0"
     style="fill:#ffffff" />
  <path
     class="st3"
     d="m 29.576527,39.595485 c 0.8,1 3.9,1.9 3.9,1.9 0,0 -0.2,-3.3 -0.9,-4.3 -0.8,-1 -2.1,-1.2 -2.9,-0.6 -0.8,0.7 -0.8,2 -0.1,3 z"
     id="path13"
     inkscape:connector-curvature="0"
     style="fill:#f1c40f" />
  <path
     class="st0"
     d="m 48.776527,25.895485 c 1.5,0.8 2,2.7 1.1,4.1 -0.8,1.5 -2.7,2 -4.1,1.1 -1.4,-0.9 -9.6,-6.9 -8.8,-8.4 0.8,-1.5 10.3,2.4 11.8,3.2 z"
     id="path15"
     inkscape:connector-curvature="0"
     style="fill:#005e91" />
  <circle
     class="st1"
     cx="47.276527"
     cy="28.495483"
     r="3"
     id="circle17"
     style="fill:#003459" />
  <path
     class="st2"
     d="m 47.276527,25.895485 c 1,0 2,0.6 2.4,1.6 0.3,0.6 0.3,1.3 0,2 -0.3,0.6 -0.8,1.1 -1.4,1.4 -0.3,0.1 -0.7,0.2 -1,0.2 -1,0 -2,-0.6 -2.4,-1.6 -0.3,-0.6 -0.3,-1.3 0,-2 0.3,-0.6 0.8,-1.1 1.4,-1.4 0.4,-0.1 0.7,-0.2 1,-0.2 m 0,-0.4 c -0.4,0 -0.8,0.1 -1.2,0.2 -1.6,0.7 -2.3,2.4 -1.6,4 0.5,1.2 1.6,1.9 2.8,1.9 0.4,0 0.8,-0.1 1.2,-0.2 1.6,-0.7 2.3,-2.4 1.6,-4 -0.4,-1.2 -1.6,-1.9 -2.8,-1.9 z"
     id="path19"
     inkscape:connector-curvature="0"
     style="fill:#ffffff" />
  <path
     class="st2"
     d="m 47.276527,25.495485 c 1.2,0 2.3,0.7 2.8,1.8 0.3,0.7 0.3,1.5 0,2.3 -0.3,0.7 -0.9,1.3 -1.6,1.6 -0.4,0.2 -0.8,0.2 -1.2,0.2 -1.2,0 -2.3,-0.7 -2.8,-1.8 -0.3,-0.7 -0.3,-1.5 0,-2.3 0.3,-0.7 0.9,-1.3 1.6,-1.6 0.4,-0.1 0.8,-0.2 1.2,-0.2 m 0,0 c -0.4,0 -0.8,0.1 -1.2,0.2 -1.6,0.7 -2.3,2.4 -1.6,4 0.5,1.2 1.6,1.9 2.8,1.9 0.4,0 0.8,-0.1 1.2,-0.2 1.6,-0.7 2.3,-2.4 1.6,-4 -0.4,-1.2 -1.6,-1.9 -2.8,-1.9 z"
     id="path21"
     inkscape:connector-curvature="0"
     style="fill:#ffffff" />
  <path
     class="st3"
     d="m 47.576527,30.695485 c 1,0.5 4,0.2 4,0.2 0,0 -1.3,-2.7 -2.3,-3.3 -1,-0.5 -2.2,-0.3 -2.6,0.5 -0.5,0.9 -0.1,2 0.9,2.6 z"
     id="path23"
     inkscape:connector-curvature="0"
     style="fill:#f1c40f" />
  <path
     class="st4"
     d="m 36.176527,30.195485 1.1,7 -5.9,-5.4 z"
     id="path25"
     inkscape:connector-curvature="0"
     style="fill:#bc4d1e" />
  <path
     class="st1"
     d="m 59.076527,32.895485 0,-19.7 7.3,0 c 0.5,0 1,0.1 1.6,0.1 0.6,0.1 1.1,0.1 1.5,0.3 0.4,0.1 0.8,0.3 1.2,0.5 0.4,0.2 0.8,0.4 1.1,0.7 0.3,0.3 0.5,0.6 0.8,1 0.2,0.4 0.4,0.8 0.5,1.3 0.1,0.5 0.2,1.1 0.2,1.7 0,1.1 -0.2,2 -0.5,2.7 -0.3,0.7 -0.8,1.3 -1.5,1.7 -0.7,0.4 -1.5,0.7 -2.4,0.9 -0.9,0.2 -2,0.3 -3.2,0.3 l -3,0 0,8.5 -3.6,0 z m 3.5,-11.4 3,0 c 0.7,0 1.2,0 1.7,-0.1 0.5,-0.1 0.9,-0.2 1.3,-0.4 0.4,-0.2 0.7,-0.5 0.9,-0.8 0.2,-0.4 0.3,-0.8 0.3,-1.3 0,-0.3 0,-0.6 -0.1,-0.8 0,-0.2 -0.1,-0.4 -0.2,-0.6 -0.1,-0.2 -0.2,-0.3 -0.3,-0.5 -0.2,-0.1 -0.3,-0.2 -0.4,-0.3 -0.1,-0.1 -0.3,-0.2 -0.6,-0.2 -0.3,-0.1 -0.5,-0.1 -0.6,-0.1 -0.2,0 -0.4,-0.1 -0.8,-0.1 l -4,0 0,5.2 z m 18.2,11.8 c -1.1,0 -2.1,-0.2 -3,-0.6 -0.9,-0.4 -1.6,-0.9 -2.2,-1.6 -0.5,-0.7 -1,-1.4 -1.2,-2.3 -0.2,-0.9 -0.4,-1.7 -0.4,-2.6 0,-1 0.1,-1.9 0.4,-2.8 0.3,-0.9 0.7,-1.7 1.3,-2.4 0.6,-0.7 1.3,-1.3 2.2,-1.7 0.9,-0.4 1.9,-0.6 3.1,-0.6 1.7,0 3,0.6 3.9,1.8 l 0,-1.5 3.3,0 0,13.9 -3.4,0 0,-1.9 c -1,1.5 -2.3,2.3 -4,2.3 z m 0.5,-2.8 c 1.3,0 2.2,-0.4 2.8,-1.2 0.6,-0.8 0.9,-1.9 0.9,-3.3 0,-1.4 -0.3,-2.5 -0.9,-3.4 -0.6,-0.8 -1.6,-1.2 -2.9,-1.2 -1.2,0 -2.2,0.4 -2.9,1.2 -0.7,0.8 -1,1.9 -1,3.3 0,1.4 0.3,2.5 1,3.3 0.7,0.9 1.7,1.3 3,1.3 z m 10.9,7.8 0,-14.6 c 0,-0.8 -0.1,-2.4 -0.3,-4.7 l 3.6,0 0,2 c 0.1,-0.5 0.6,-1 1.4,-1.6 0.8,-0.5 1.8,-0.8 2.9,-0.8 1.200003,0 2.300003,0.3 3.200003,1 0.9,0.7 1.6,1.5 2.1,2.6 0.5,1.1 0.7,2.2 0.7,3.5 0,0.9 -0.1,1.9 -0.4,2.7 -0.3,0.9 -0.7,1.7 -1.2,2.4 -0.5,0.7 -1.2,1.3 -2,1.7 -0.8,0.4 -1.7,0.6 -2.700003,0.6 -1.1,0 -2,-0.3 -2.8,-0.8 -0.8,-0.5 -1.2,-1 -1.3,-1.5 l 0,7.3 -3.2,0 z m 6.7,-7.8 c 0.6,0 1.200003,-0.1 1.600003,-0.4 0.5,-0.2 0.8,-0.6 1.1,-1 0.3,-0.4 0.5,-0.9 0.6,-1.4 0.1,-0.5 0.2,-1.1 0.2,-1.7 0,-0.9 -0.1,-1.6 -0.4,-2.3 -0.2,-0.7 -0.6,-1.2 -1.2,-1.6 -0.5,-0.4 -1.200003,-0.6 -2.000003,-0.6 -0.8,0 -1.5,0.2 -2,0.6 -0.5,0.4 -0.9,1 -1.2,1.6 -0.2,0.7 -0.4,1.4 -0.4,2.3 0,0.6 0.1,1.2 0.2,1.8 0.1,0.5 0.3,1 0.6,1.5 0.3,0.4 0.6,0.8 1.1,1 0.6,0.1 1.1,0.2 1.8,0.2 z m 17.400003,2.8 c -2.3,0 -4.2,-0.7 -5.5,-2 -1.4,-1.3 -2,-3.1 -2,-5.2 0,-1 0.2,-1.9 0.5,-2.8 0.3,-0.9 0.8,-1.7 1.4,-2.3 0.6,-0.7 1.3,-1.2 2.3,-1.6 0.9,-0.4 1.9,-0.6 3,-0.6 1.1,0 2.1,0.2 2.9,0.6 0.8,0.4 1.5,0.9 2,1.6 0.5,0.7 0.8,1.4 1.1,2.3 0.2,0.8 0.3,1.8 0.3,2.8 0,0.3 0,0.5 -0.1,0.6 l -9.8,0 c 0.1,1.4 0.5,2.4 1.2,3 0.8,0.7 1.8,1 3.1,1 1.5,0 3,-0.5 4.4,-1.5 l 0.9,2.4 c -0.9,0.6 -1.8,1.1 -2.7,1.3 -0.9,0.2 -1.9,0.4 -3,0.4 z m -3.9,-9 6.9,0 c -0.2,-1 -0.5,-1.7 -1.1,-2.3 -0.6,-0.5 -1.3,-0.8 -2.1,-0.8 -1,0 -1.8,0.3 -2.4,0.8 -0.7,0.6 -1.1,1.4 -1.3,2.3 z m 13.4,8.6 0,-10.3 c 0,-0.5 0,-1.1 -0.1,-1.7 0,-0.6 -0.1,-1 -0.1,-1.4 l -0.1,-0.5 3.6,0 0,1.9 c 0.6,-0.7 1.1,-1.3 1.6,-1.6 0.5,-0.4 1.2,-0.5 1.9,-0.5 0.4,0 0.9,0.1 1.4,0.2 l 0,2.9 c -0.6,-0.2 -1.2,-0.3 -1.7,-0.3 -0.9,0 -1.7,0.3 -2.3,0.9 -0.6,0.6 -0.9,1.5 -0.9,2.6 l 0,7.8 -3.3,0 z"
     id="path27"
     inkscape:connector-curvature="0"
     style="fill:#003459" />
  <path
     class="st0"
     d="m 145.47653,33.195485 c -1.3,0 -2.5,-0.2 -3.7,-0.7 -1.2,-0.4 -2.2,-1.1 -3.1,-1.9 -0.9,-0.8 -1.7,-1.9 -2.2,-3.2 -0.5,-1.3 -0.8,-2.8 -0.8,-4.4 0,-1.3 0.2,-2.6 0.5,-3.7 0.4,-1.1 0.9,-2.1 1.5,-2.9 0.6,-0.8 1.3,-1.5 2.2,-2 0.8,-0.6 1.7,-1 2.6,-1.2 0.9,-0.3 1.8,-0.4 2.8,-0.4 2.6,0 4.8,0.7 6.6,2.1 l -1.3,2.4 c -1.5,-1 -3.2,-1.6 -5,-1.6 -0.8,0 -1.6,0.2 -2.4,0.5 -0.8,0.3 -1.4,0.8 -2,1.4 -0.6,0.6 -1,1.4 -1.4,2.3 -0.3,0.9 -0.5,1.9 -0.5,3 0,2.2 0.6,3.9 1.8,5.2 1.2,1.3 2.8,2 4.7,2 2,0 3.8,-0.7 5.5,-2 l 1.2,2.7 c -2,1.7 -4.3,2.4 -7,2.4 z m 14.9,0.1 c -1.1,0 -2.1,-0.2 -3,-0.6 -0.9,-0.4 -1.6,-0.9 -2.2,-1.6 -0.5,-0.7 -1,-1.4 -1.2,-2.3 -0.3,-0.8 -0.4,-1.7 -0.4,-2.6 0,-1 0.1,-1.9 0.4,-2.8 0.3,-0.9 0.7,-1.7 1.3,-2.4 0.6,-0.7 1.3,-1.3 2.2,-1.7 0.9,-0.4 1.9,-0.6 3.1,-0.6 1.7,0 3,0.6 3.9,1.8 l 0,-1.5 3.3,0 0,13.9 -3.4,0 0,-1.9 c -1.1,1.5 -2.4,2.3 -4,2.3 z m 0.4,-2.8 c 1.3,0 2.2,-0.4 2.8,-1.2 0.6,-0.8 0.9,-1.9 0.9,-3.3 0,-1.4 -0.3,-2.5 -0.9,-3.4 -0.6,-0.8 -1.6,-1.2 -2.9,-1.2 -1.2,0 -2.2,0.4 -2.9,1.2 -0.7,0.8 -1,1.9 -1,3.3 0,1.4 0.3,2.5 1,3.3 0.7,0.9 1.7,1.3 3,1.3 z m 10.7,2.4 0,-19.7 3.3,0 0,19.7 -3.3,0 z m 7.1,0 0,-19.7 3.3,0 0,19.7 -3.3,0 z"
     id="path29"
     inkscape:connector-curvature="0"
     style="fill:#005e91" />
  <path
     class="st5"
     d="m 49.376527,23.495485 -8.7,4.3 L 8.1765277,8.8954847 Z"
     id="path31"
     inkscape:connector-curvature="0"
     style="fill:#fc611f" />
  <path
     class="st6"
     d="m 40.676527,27.795485 -3.4,9.4 -1.1,-7 L 8.1765277,8.8954847 Z"
     id="path33"
     inkscape:connector-curvature="0"
     style="fill:#df5b23" />
  <path
     class="st5"
     d="m 36.176527,30.195485 -13.1,5.8 L 8.1765277,8.8954847 Z"
     id="path35"
     inkscape:connector-curvature="0"
     style="fill:#fc611f" />
  <path
     class="st0"
     d="m 56.576527,55.895485 c -0.7,0 -1.4,-0.2 -2.1,-0.4 l 0.2,-0.5 c 0.6,0.2 1.3,0.3 1.9,0.4 l 0,0.5 z m 1.4,-0.1 -0.1,-0.5 c 0.7,-0.1 1.3,-0.3 1.8,-0.7 l 0.3,0.4 c -0.6,0.4 -1.3,0.7 -2,0.8 z m -4.7,-0.9 c -0.7,-0.4 -1.2,-0.8 -1.6,-1.3 l 0.4,-0.3 c 0.4,0.4 0.9,0.9 1.5,1.2 l -0.3,0.4 z m 7.7,-0.8 -0.4,-0.3 c 0.4,-0.5 0.7,-1 0.9,-1.7 l 0.5,0.2 c -0.2,0.7 -0.5,1.3 -1,1.8 z m -10.1,-1.7 c -0.1,-0.3 -0.1,-0.6 -0.1,-0.8 0,-0.2 0,-0.4 0.1,-0.7 0.1,-0.2 0.1,-0.4 0.2,-0.6 l 0.5,0.1 c -0.1,0.2 -0.1,0.4 -0.2,0.6 0,0.2 -0.1,0.4 -0.1,0.5 0,0.2 0,0.5 0.1,0.7 l -0.5,0.2 z m 10.9,-1.5 c 0,-0.6 -0.2,-1.1 -0.7,-1.6 l 0.3,-0.4 c 0.6,0.6 0.9,1.2 0.9,1.9 l -0.5,0.1 z m -9.9,-1.8 -0.4,-0.2 c 0.3,-0.7 0.6,-1.3 0.9,-1.9 l 0.4,0.3 -0.9,1.8 z m 8.1,-0.6 c -0.5,-0.3 -1.1,-0.5 -1.8,-0.8 l 0.2,-0.5 c 0.8,0.3 1.4,0.5 1.9,0.8 l -0.3,0.5 z m -3.1,-1.1 c -0.6,-0.2 -1.3,-0.3 -2,-0.5 l 0.1,-0.5 c 0.7,0.2 1.4,0.3 2,0.5 l -0.1,0.5 z m -3.3,-0.8 -0.2,-0.1 c -0.6,-0.1 -1.1,-0.3 -1.7,-0.4 l 0.1,-0.5 1.5,0.3 -0.2,0 c 0.4,-0.6 0.9,-1.1 1.4,-1.5 l 0.3,0.4 c -0.4,0.4 -0.9,0.8 -1.2,1.3 l 0.1,0 -0.1,0.5 z m -3.3,-0.8 c -0.7,-0.2 -1.3,-0.3 -2,-0.5 l 0.1,-0.5 c 0.6,0.2 1.3,0.4 1.9,0.5 l 0,0.5 z m 26.7,-0.4 c -0.6,-0.3 -1.2,-0.6 -1.8,-0.8 l 0.2,-0.5 c 0.6,0.3 1.2,0.5 1.9,0.8 l -0.3,0.5 z m -30,-0.5 c -0.7,-0.2 -1.3,-0.5 -1.9,-0.7 l 0.2,-0.5 c 0.6,0.2 1.2,0.5 1.9,0.7 l -0.2,0.5 z m 26.9,-0.9 c -0.6,-0.2 -1.3,-0.5 -1.9,-0.7 l 0.2,-0.5 c 0.6,0.2 1.3,0.4 1.9,0.7 l -0.2,0.5 z m -18,0 -0.3,-0.4 c 0.6,-0.4 1.2,-0.7 1.8,-1 l 0.2,0.5 c -0.6,0.2 -1.2,0.5 -1.7,0.9 z m -12,-0.5 c -0.6,-0.3 -1.2,-0.7 -1.8,-1.1 l 0.3,-0.4 c 0.5,0.4 1.1,0.7 1.7,1 l -0.2,0.5 z m 26.8,-0.6 c -0.7,-0.2 -1.3,-0.4 -1.9,-0.5 l 0.1,-0.5 c 0.6,0.1 1.3,0.3 2,0.5 l -0.2,0.5 z m -11.8,-0.4 -0.2,-0.5 c 0.6,-0.2 1.3,-0.4 2,-0.5 l 0.1,0.5 c -0.7,0.2 -1.3,0.3 -1.9,0.5 z m 8.5,-0.3 c -0.7,-0.1 -1.3,-0.2 -2,-0.3 l 0,-0.5 c 0.7,0.1 1.3,0.2 2,0.3 l 0,0.5 z m -5.3,-0.3 0,-0.5 c 0.5,0 1,-0.1 1.5,-0.1 l 0.6,0 0,0.5 -0.6,0 c -0.5,0 -1,0 -1.5,0.1 z m -21.1,-0.3 c -0.5,-0.5 -1,-1 -1.4,-1.5 l 0.4,-0.3 c 0.4,0.5 0.8,1 1.3,1.4 l -0.3,0.4 z"
     id="path37"
     inkscape:connector-curvature="0"
     style="fill:#005e91" />
</svg>
